<svg xmlns="http://www.w3.org/2000/svg" style="display: none;">

    <symbol id="sceico-x" viewBox="0 0 512 512">
      <path d="m444 387l-132-132 132-130c5-5 5-14 0-19l-37-38c-3-2-7-4-10-4-4 0-7 2-10 4l-131 130-131-130c-3-2-6-4-10-4-4 0-7 2-10 4l-37 38c-5 5-5 14 0 20l132 130-132 131c-2 3-4 6-4 10 0 4 2 7 4 10l38 37c3 3 6 4 10 4 3 0 7-1 9-4l131-131 131 131c2 3 6 4 10 4 3 0 7-1 9-4l38-37c2-3 4-6 4-10 0-4-2-7-4-10z"/>
    </symbol>

    <symbol id="sceico-plus-1" viewBox="0 0 512 512">
      <path d="m416 277l-139 0 0 139-42 0 0-139-139 0 0-42 139 0 0-139 42 0 0 139 139 0z"/>
    </symbol>

    <symbol id="sceico-person" viewBox="0 0 512 512">
      <path d="m256 256c53 0 96-43 96-96 0-53-43-96-96-96-53 0-96 43-96 96 0 53 43 96 96 96z m0 48c-64 0-192 32-192 96l0 48 384 0 0-48c0-64-128-96-192-96z"/>
    </symbol>

    <symbol id="sceico-dash" viewBox="0 0 512 512">
      <path d="m256 232c-31 0-56 25-56 56 0 31 25 56 56 56 31 0 56-25 56-56 0-4-1-8-2-12 41-48 104-122 138-164 12-14-1-28-16-16-43 35-116 97-163 138-4-1-9-2-13-2z m16-104c0-9-7-16-16-16-9 0-16 7-16 16 0 9 7 16 16 16 9 0 16-7 16-16z m96 128c0 9 7 16 16 16 9 0 16-7 16-16 0-9-7-16-16-16-9 0-16 7-16 16z m-176-128c-9 0-16 7-16 16 0 9 7 16 16 16 9 0 16-7 16-16 0-9-7-16-16-16z m-32 64c0-9-7-16-16-16-9 0-16 7-16 16 0 9 7 16 16 16 9 0 16-7 16-16z m-48 64c0 9 7 16 16 16 9 0 16-7 16-16 0-9-7-16-16-16-9 0-16 7-16 16z m224-112c0-9-7-16-16-16-9 0-16 7-16 16 0 9 7 16 16 16 9 0 16-7 16-16z m108 24l-34 45c4 14 6 28 6 43 0 88-72 160-160 160-88 0-160-72-160-160 0-88 72-160 160-160 33 0 64 10 89 27l40-30c-36-28-80-45-129-45-115 0-208 93-208 208 0 115 93 208 208 208 115 0 208-93 208-208 0-31-7-61-20-88z"/>
    </symbol>

    <symbol id="sceico-time" viewBox="0 0 512 512">
      <path d="m256 43c-118 0-213 96-213 213 0 117 95 213 213 213 118 0 213-96 213-213 0-117-96-213-213-213z m0 383c-94 0-170-76-170-170 0-94 76-170 170-170 94 0 170 76 170 170 0 94-76 170-170 170z m11-276l-32 0 0 127 112 67 16-26-96-57z"/>
    </symbol>

    <symbol id="sceico-row" viewBox="0 0 512 512">
      <path d="m496 0l-480 0c-9 0-16 7-16 16l0 96c0 9 7 16 16 16l480 0c9 0 16-7 16-16l0-96c0-9-7-16-16-16m0 192l-480 0c-9 0-16 7-16 16l0 96c0 9 7 16 16 16l480 0c9 0 16-7 16-16l0-96c0-9-7-16-16-16m0 192l-480 0c-9 0-16 7-16 16l0 96c0 9 7 16 16 16l480 0c9 0 16-7 16-16l0-96c0-9-7-16-16-16"/>
    </symbol>

    <symbol id="sceico-col" viewBox="0 0 512 512">
      <path d="m112 0l-96 0c-9 0-16 7-16 16l0 96c0 9 7 16 16 16l96 0c9 0 16-7 16-16l0-96c0-9-7-16-16-16m0 192l-96 0c-9 0-16 7-16 16l0 96c0 9 7 16 16 16l96 0c9 0 16-7 16-16l0-96c0-9-7-16-16-16m0 192l-96 0c-9 0-16 7-16 16l0 96c0 9 7 16 16 16l96 0c9 0 16-7 16-16l0-96c0-9-7-16-16-16m384-384l-288 0c-9 0-16 7-16 16l0 96c0 9 7 16 16 16l288 0c9 0 16-7 16-16l0-96c0-9-7-16-16-16m0 192l-288 0c-9 0-16 7-16 16l0 96c0 9 7 16 16 16l288 0c9 0 16-7 16-16l0-96c0-9-7-16-16-16m0 192l-288 0c-9 0-16 7-16 16l0 96c0 9 7 16 16 16l288 0c9 0 16-7 16-16l0-96c0-9-7-16-16-16"/>
    </symbol>

    <symbol id="sceico-grid" viewBox="0 0 512 512">
      <path d="m208 0l-192 0c-9 0-16 7-16 16l0 192c0 9 7 16 16 16l192 0c9 0 16-7 16-16l0-192c0-9-7-16-16-16m288 0l-192 0c-9 0-16 7-16 16l0 192c0 9 7 16 16 16l192 0c9 0 16-7 16-16l0-192c0-9-7-16-16-16m-288 288l-192 0c-9 0-16 7-16 16l0 192c0 9 7 16 16 16l192 0c9 0 16-7 16-16l0-192c0-9-7-16-16-16m288 0l-192 0c-9 0-16 7-16 16l0 192c0 9 7 16 16 16l192 0c9 0 16-7 16-16l0-192c0-9-7-16-16-16"/>
    </symbol>

    <symbol id="sceico-minus-1" viewBox="0 0 512 512">
      <path d="m96 235l320 0 0 42-320 0z"/>
    </symbol>

    <symbol id="sceico-close" viewBox="0 0 512 512">
      <path d="m405 137l-30-30-119 119-119-119-30 30 119 119-119 119 30 30 119-119 119 119 30-30-119-119z"/>
    </symbol>

    <symbol id="sceico-img" viewBox="0 0 512 512">
      <path d="m368 224c27 0 48-21 48-48 0-26-21-48-48-48-26 0-48 22-48 48 0 27 22 48 48 48z m84-160l-392 0c-16 0-28 13-28 28l0 328c0 15 12 28 28 28l392 0c16 0 28-13 28-28l0-328c0-15-12-28-28-28z m-103 198c-3-4-8-6-13-6-5 0-9 2-13 5l-18 16c-4 3-7 5-12 5-4 0-8-2-11-4-1-1-3-3-4-4l-54-59c-4-4-10-7-17-7-6 0-13 3-16 8l-127 152 0-260c1-7 6-12 13-12l358 0c7 0 12 5 13 12l0 260z"/>
    </symbol>

    <symbol id="sceico-help" viewBox="0 0 512 512">
      <path d="m256 32c-124 0-224 100-224 224 0 124 100 224 224 224 124 0 224-100 224-224 0-124-100-224-224-224z m20 327c0 18-13 29-31 28-16 0-29-12-28-30 0-18 14-29 30-29 17 1 30 13 29 31z m49-128c-4 6-14 14-25 23l-14 9c-6 5-10 11-12 17-1 4-2 13-2 19 0 1-1 4-5 4-3 0-35 0-39 0-4 0-4-2-4-4 0-16 3-30 10-41 9-15 35-30 35-30 4-3 7-6 10-10 4-6 8-13 8-20 0-8-2-16-8-23-6-7-13-11-25-11-13 0-21 6-26 15-5 8-4 18-4 27l-49 0c0-34 9-56 28-68 12-9 29-13 48-13 24 0 44 5 61 18 17 12 25 29 25 52 0 15-5 27-12 36z"/>
    </symbol>

    <symbol id="sceico-info" viewBox="0 0 512 512">
      <path d="m480 253c-2-124-103-223-227-221-124 2-223 103-221 227 2 124 103 223 227 221 124-2 223-103 221-227z m-224-141c18 0 32 14 32 32 0 18-14 32-32 32-18 0-32-14-32-32 0-18 14-32 32-32z m44 283l-88 0 0-11 22 0 0-160-22 0 0-12 66 0 0 172 22 0z"/>
    </symbol>

    <symbol id="sceico-set" viewBox="0 0 512 512">
      <path d="m411 256c0-24 15-43 37-56-4-13-9-26-16-38-25 7-45-3-62-20-17-17-22-37-15-62-12-7-25-12-39-16-13 22-36 37-60 37-24 0-47-15-60-37-14 4-27 9-39 16 7 25 2 45-15 62-17 17-37 27-62 20-7 12-12 25-16 38 22 13 37 32 37 56 0 24-15 47-37 60 4 14 9 27 16 39 25-7 45-2 62 15 17 17 22 37 15 62 12 7 25 12 39 16 13-22 36-37 60-37 24 0 47 15 60 37 14-4 27-9 39-16-7-25-2-45 15-62 17-17 37-26 62-20 7-12 12-25 16-38-22-13-37-32-37-56z m-155 98c-54 0-98-44-98-98 0-54 44-98 98-98 54 0 98 44 98 98 0 54-44 98-98 98z"/>
    </symbol>

    <symbol id="sceico-up" viewBox="0 0 512 512">
      <path d="m256 214l174 167c5 4 12 4 16 0l31-30c4-4 4-11 0-16l-213-204c-2-2-5-3-8-3-3 0-6 1-8 3l-213 204c-4 5-4 12 0 16l31 30c4 4 12 4 16 0z"/>
    </symbol>

    <symbol id="sceico-checkempty" viewBox="0 0 512 512">
      <path d="m405 107l0 298-298 0 0-298 298 0m0-43l-298 0c-24 0-43 19-43 43l0 298c0 24 19 43 43 43l298 0c24 0 43-19 43-43l0-298c0-24-19-43-43-43z"/>
    </symbol>

    <symbol id="sceico-checkfull" viewBox="0 0 512 512">
      <path d="m169 215l-30 30 96 96 213-213-30-30-183 183z m236 190l-298 0 0-298 213 0 0-43-213 0c-24 0-43 19-43 43l0 298c0 24 19 43 43 43l298 0c24 0 43-19 43-43l0-170-43 0z"/>
    </symbol>

    <symbol id="sceico-edit" viewBox="0 0 512 512">
      <path d="m163 440l-91-91 251-250 90 90z m309-352l-48-48c-12-11-32-11-45 2l-45 45 91 91 45-45c13-13 13-33 2-45z m-408 275l-32 117 117-32z"/>
    </symbol>

    <symbol id="sceico-search" viewBox="0 0 512 512">
      <path d="m347 238c0-36-12-66-37-91c-25-25-55-37-91-37c-35 0-65 12-90 37c-25 25-38 55-38 91c0 35 13 65 38 90c25 25 55 38 90 38c36 0 66-13 91-38c25-25 37-55 37-90z m147 237c0 10-4 19-11 26c-7 7-16 11-26 11c-10 0-19-4-26-11l-98-98c-34 24-72 36-114 36c-27 0-53-5-78-16c-25-11-46-25-64-43c-18-18-32-39-43-64c-10-25-16-51-16-78c0-28 6-54 16-78c11-25 25-47 43-65c18-18 39-32 64-43c25-10 51-15 78-15c28 0 54 5 79 15c24 11 46 25 64 43c18 18 32 40 43 65c10 24 16 50 16 78c0 42-12 80-36 114l98 98c7 7 11 15 11 25z"/>
    </symbol>

    <symbol id="sceico-cal" viewBox="0 0 512 512">
      <path d="m416 0l-64 0 0 64 64 0z m64 0l-32 0 0 96-128 0 0-96-128 0 0 96-128 0 0-96-32 0c-18 0-32 14-32 32l0 448c0 18 14 32 32 32l448 0c18 0 32-14 32-32l0-448c0-18-14-32-32-32z m-32 448l-384 0 0-288 384 0z m-288-448l-64 0 0 64 64 0z m128 224l-64 0 0 64 64 0z m96 0l-64 0 0 64 64 0z m-192 96l-64 0 0 64 64 0z m0-96l-64 0 0 64 64 0z m96 96l-64 0 0 64 64 0z m96 0l-64 0 0 64 64 0z"/>
    </symbol>

    <symbol id="sceico-bell" viewBox="0 0 512 512">
      <path d="m261 485c0-3-2-5-5-5c-11 0-21-4-29-12c-8-8-12-18-12-29c0-3-2-5-5-5c-3 0-4 2-4 5c0 14 5 26 14 35c10 10 22 15 36 15c3 0 5-1 5-4z m-190-83l370 0c-31-34-54-73-70-117c-16-44-24-90-24-139c0-48-30-73-91-73c-61 0-91 25-91 73c0 49-8 95-24 139c-16 44-39 83-70 117z m423 0c0 10-4 19-11 26c-7 7-16 11-26 11l-128 0c0 20-7 37-21 52c-15 14-32 21-52 21c-20 0-37-7-52-21c-14-15-21-32-21-52l-128 0c-10 0-19-4-26-11c-7-7-11-16-11-26c36-30 64-68 82-113c19-45 28-93 28-143c0-31 9-56 27-75c19-18 44-29 76-33c-2-3-2-7-2-11c0-7 2-14 8-19c5-5 11-8 19-8c8 0 14 3 19 8c6 5 8 12 8 19c0 4 0 8-2 11c32 4 57 15 76 33c18 19 27 44 27 75c0 50 9 98 28 143c18 45 46 83 82 113z"/>
    </symbol>

    <symbol id="sceico-copy" viewBox="0 0 512 512">
      <path d="m485 110c7 0 14 2 19 8c5 5 8 12 8 19l0 348c0 7-3 14-8 19c-5 5-12 8-19 8l-275 0c-7 0-14-3-19-8c-5-5-8-12-8-19l0-83l-156 0c-7 0-14-2-19-8c-5-5-8-12-8-19l0-192c0-8 2-16 6-25c4-9 8-17 13-22l117-117c5-5 13-9 22-13c9-4 17-6 25-6l119 0c7 0 14 3 19 8c5 5 8 12 8 19l0 94c13-7 25-11 37-11z m-156 61l-85 85l85 0z m-183-110l-85 85l85 0z m56 185l91-91l0-118l-110 0l0 118c0 8-3 15-8 20c-5 5-12 8-20 8l-118 0l0 183l146 0l0-73c0-8 2-16 6-26c3-9 8-16 13-21z m273 229l0-329l-109 0l0 119c0 8-3 14-8 20c-6 5-12 8-20 8l-119 0l0 182z"/>
    </symbol>

    <symbol id="sceico-sizeup" viewBox="0 0 512 512">
      <path d="m297 53c0 0 162 0 162 0c0 0 0 162 0 162c0 0-51-63-51-63c0 0-75 77-75 77c0 0-51-51-51-51c0 0 77-75 77-75c0 0-62-50-62-50m-118 228c0 0 51 51 51 51c0 0-77 75-77 75c0 0 62 51 62 51c0 0-162 0-162 0c0 0 0-162 0-162c0 0 51 62 51 62c0 0 75-77 75-77"/>
    </symbol>

    <symbol id="sceico-sizedown" viewBox="0 0 512 512">
      <path d="m105 360c0 0-54-51-54-51c0 0 152 0 152 0c0 0 0 152 0 152c0 0-51-54-51-54c0 0-75 79-75 79c0 0-51-51-51-51c0 0 79-75 79-75m381-283c0 0-78 74-78 74c0 0 53 51 53 51c0 0-151 0-151 0c0 0 0-151 0-151c0 0 51 53 51 53c0 0 74-78 74-78c0 0 51 51 51 51"/>
    </symbol>

    <symbol id="sceico-move" viewBox="0 0 512 512">
      <path d="m257 0l-96 128l63 0l0 96l-96 0l0-64l-128 96l128 96l0-64l96 0l0 96l-63 0l96 128l96-128l-65 0l0-96l96 0l0 64l128-96l-128-96l0 64l-96 0l0-96l65 0z"/>
    </symbol>

    <symbol id="sceico-trash" viewBox="0 0 512 512">
      <path d="m464 96l-112 0l0-32c0-64-32-64-64-64l-96 0c-64 0-64 32-64 64l0 32l-112 0c-9 0-16 7-16 16l0 32c0 9 7 16 16 16l448 0c9 0 16-7 16-16l0-32c0-9-7-16-16-16m-176 0l-96 0l0-32l96 0z m64 99l0 237c0 9-7 16-16 16c-9 0-16-7-16-16l0-237l1-3l-66 0l1 3l0 237c0 9-7 16-16 16c-9 0-16-7-16-16l0-237l1-3l-66 0l1 3l0 237c0 9-7 16-16 16c-9 0-16-7-16-16l0-237l1-3l-65 0l0 304c0 9 7 16 16 16l320 0c9 0 16-7 16-16l0-304l-65 0z"/>
    </symbol>

    <symbol id="sceico-heartfull" viewBox="0 0 512 512">
      <path d="m256 475c-5 0-9-1-13-5l-178-172c-2-1-4-4-8-7c-3-4-8-10-16-19c-7-9-13-18-19-28c-6-9-11-21-15-34c-5-14-7-27-7-40c0-42 12-74 36-98c24-24 58-35 101-35c11 0 23 2 36 6c12 4 23 9 34 16c11 7 20 14 27 20c8 6 15 12 22 19c7-7 14-13 22-19c7-6 16-13 27-20c11-7 22-12 34-16c13-4 25-6 36-6c43 0 77 11 101 35c24 24 36 56 36 98c0 42-22 85-65 129l-178 171c-4 4-8 5-13 5z"/>
    </symbol>

    <symbol id="sceico-heartempty" viewBox="0 0 512 512">
      <path d="m475 170c0-15-2-29-6-41c-4-11-9-21-15-28c-7-7-15-12-24-17c-9-4-18-7-27-9c-8-1-18-2-28-2c-9 0-20 3-32 7c-11 5-22 11-31 19c-10 7-18 14-25 20c-7 7-12 13-17 18c-3 4-8 6-14 6c-6 0-11-2-14-6c-5-5-10-11-17-18c-7-6-15-13-25-20c-9-8-20-14-31-19c-12-4-23-7-32-7c-10 0-20 1-28 2c-9 2-18 5-27 9c-9 5-17 10-24 17c-6 7-11 17-15 28c-4 12-6 26-6 41c0 32 17 66 53 102l166 160l166-160c36-36 53-70 53-102z m37 0c0 42-22 85-65 129l-178 171c-4 4-8 5-13 5c-5 0-9-1-13-5l-178-172c-2-1-4-4-8-7c-3-4-8-10-16-19c-7-9-13-18-19-28c-6-9-11-21-15-34c-5-14-7-27-7-40c0-42 12-74 36-98c24-24 58-35 101-35c11 0 23 2 36 6c12 4 23 9 34 16c11 7 20 14 27 20c8 6 15 12 22 19c7-7 14-13 22-19c7-6 16-13 27-20c11-7 22-12 34-16c13-4 25-6 36-6c43 0 77 11 101 35c24 24 36 56 36 98z"/>
    </symbol>

    <symbol id="sceico-dia" viewBox="0 0 512 512">
      <path d="m371 42l-230 0l-141 139l256 289l256-289z m90 151l-1-2l-190 0l92-98z m-239 178l-150-158l99 0l-10 4z m-40-158l148 0l-74 184z m159 0l99 0l-150 158l61-154z m-85-37l-83-91l166 0z m-106-82l92 97l-190 0l-1 1z"/>
    </symbol>

    <symbol id="sceico-nav" viewBox="0 0 512 512">
      <path d="m96 241l320 0 0 32-320 0z m0-96l320 0 0 32-320 0z m0 192l320 0 0 32-320 0z"/>
    </symbol>

    <symbol id="sceico-talk" viewBox="0 0 512 512">
      <path d="m480 43l-448 0c-18 0-32 14-32 32l0 277c0 18 14 32 32 32l32 0l0 100l100-100l316 0c18 0 32-14 32-32l0-277c0-18-14-32-32-32z m11 309c0 6-5 11-11 11l-324 0l-71 70l0-70l-53 0c-6 0-11-5-11-11l0-277c0-6 5-11 11-11l448 0c6 0 11 5 11 11z m-299-139c0 12-10 22-21 22c-12 0-22-10-22-22c0-11 10-21 22-21c11 0 21 10 21 21z m171 0c0 12-10 22-22 22c-11 0-21-10-21-22c0-11 10-21 21-21c12 0 22 10 22 21z m-86 0c0 12-9 22-21 22c-12 0-21-10-21-22c0-11 9-21 21-21c12 0 21 10 21 21z"/>
    </symbol>

    <symbol id="sceico-support" viewBox="0 0 512 512">
      <path d="m256 0c35 0 68 7 99 20 32 14 59 32 82 55 23 23 41 50 55 82 13 31 20 64 20 99 0 35-7 68-20 99-14 32-32 59-55 82-23 23-50 41-82 55-31 13-64 20-99 20-35 0-68-7-99-20-32-14-59-32-82-55-23-23-41-50-55-82-13-31-20-64-20-99 0-35 7-68 20-99 14-32 32-59 55-82 23-23 50-41 82-55 31-13 64-20 99-20z m0 37c-36 0-71 8-103 25l55 56c16-6 32-8 48-8 16 0 32 2 48 8l55-56c-32-17-67-25-103-25z m-194 322l56-55c-6-16-8-32-8-48 0-16 2-32 8-48l-56-55c-17 32-25 67-25 103 0 36 8 71 25 103z m194 116c36 0 71-8 103-25l-55-56c-16 6-32 8-48 8-16 0-32-2-48-8l-55 56c32 17 67 25 103 25z m0-109c30 0 56-11 78-32 21-22 32-48 32-78 0-30-11-56-32-78-22-21-48-32-78-32-30 0-56 11-78 32-21 22-32 48-32 78 0 30 11 56 32 78 22 21 48 32 78 32z m138-62l56 55c17-32 25-67 25-103 0-36-8-71-25-103l-56 55c6 16 8 32 8 48 0 16-2 32-8 48z"/>
    </symbol>

    <symbol id="sceico-locked" viewBox="0 0 512 512">
      <path d="m245 338l0 57c0 6 5 10 11 10c6 0 11-4 11-10l0-57c6-3 10-10 10-18c0-12-9-21-21-21c-12 0-21 9-21 21c0 8 4 15 10 18z m139-146l0-64c0-71-57-128-128-128c-71 0-128 57-128 128l0 64l-64 0l0 320l384 0l0-320z m-235-64c0-59 48-107 107-107c59 0 107 48 107 107l0 64l-214 0z m278 363l-342 0l0-278l342 0z"/>
    </symbol>

    <symbol id="sceico-unlocked" viewBox="0 0 512 512">
      <path d="m245 338l0 57c0 6 5 10 11 10c6 0 11-4 11-10l0-57c6-3 10-10 10-18c0-12-9-21-21-21c-12 0-21 9-21 21c0 8 4 15 10 18z m139-146l0-64c0-71-57-128-128-128c-71 0-128 57-128 128l21 0c0-59 48-107 107-107c59 0 107 48 107 107l0 64l-299 0l0 320l384 0l0-320z m43 299l-342 0l0-278l342 0z"/>
    </symbol>

    <symbol id="sceico-key" viewBox="0 0 512 512">
      <path d="m368 0c-88 0-160 72-160 160c0 21 4 40 11 58l-194 194c-6 6-9 11-9 20l0 48c0 17 15 32 32 32l48 0c9 0 14-3 20-9l23-23l37 0c18 0 32-14 32-32l0-32l32 0c18 0 32-14 32-32l0-38l38-37c18 7 37 11 58 11c88 0 160-72 160-160c0-88-72-160-160-160z m0 288c-24 0-46-7-65-18l-5 5l-18 18l-31 31c-6 6-9 14-9 22l0 38l-32 0c-18 0-32 14-32 32l0 32l-37 0c-9 0-17 3-23 9l-23 23l-45 0l0-46l187-186c0 0 0 0 0 0l23-23c-11-19-18-41-18-65c0-71 57-128 128-128c71 0 128 57 128 128c0 71-57 128-128 128z m93-156c-18-25-40-47-65-65c-4-3-9-4-14-2c-22 8-37 23-45 45c-1 2-1 4-1 5c0 3 1 7 3 9c18 25 40 47 65 65c4 3 9 4 14 2c22-8 37-23 45-45c1-2 1-3 1-5c0-3-1-7-3-9z m-48 44c-24-17-44-37-61-61c6-17 18-29 35-35c24 17 44 38 61 61c-6 17-18 29-35 35z"/>
    </symbol>

    <symbol id="sceico-cart" viewBox="0 0 512 512">
      <path d="m248 354c-27 0-49 22-49 49 0 27 22 49 49 49 27 0 49-22 49-49 0-27-22-49-49-49z m0 74c-13 0-25-11-25-25 0-14 12-25 25-25 14 0 25 11 25 25 0 14-11 25-25 25l0 3z m173-74c-27 0-49 22-49 49 0 27 22 49 49 49 27 0 49-22 49-49 0-27-22-49-49-49z m25 49c0 14-11 25-25 25-13 0-25-11-25-25 0-14 12-25 25-25 14 0 25 11 25 25z m48-91l-292 0-7-25 283-46 0 0c8-2 13-8 12-15l15-114c1-2 1-3 1-4l0-3c0-7-6-13-13-13l-316 0c-7 0-12 6-12 13l0 3c0 7 5 12 12 12l299 0-13 95-276 45-59-190c-2-6-7-10-13-10l-97 0c-4 0-8 1-10 4-3 2-4 6-4 10 0 3 1 7 4 10 2 2 6 4 10 4l87 0 74 241c2 6 7 10 13 10l302 0c8 0 14-6 14-14 0-7-6-13-14-13z"/>
    </symbol>

    <symbol id="sceico-apps-1" viewBox="0 0 512 512">
      <path d="m201 110c-29 0-56 5-82 15c-25 9-45 23-60 40c-15 17-22 35-22 54c0 16 5 31 15 46c10 14 24 27 42 37l28 16l-10 24c6-4 12-7 18-11l12-9l15 3c15 3 30 4 44 4c29 0 57-5 82-15c25-10 45-23 60-40c15-17 23-35 23-55c0-19-8-37-23-54c-15-17-35-31-60-40c-25-10-53-15-82-15z m0-37c37 0 70 7 101 20c31 13 56 31 73 53c18 22 27 47 27 73c0 27-9 51-27 74c-17 22-42 40-73 53c-31 13-64 20-101 20c-16 0-33-2-50-5c-24 17-50 29-80 37c-6 1-15 3-24 4l-1 0c-2 0-4 0-6-2c-2-2-3-4-3-6c0-1 0-1 0-2c0-1 0-1 0-2c0 0 0-1 0-1l1-2c0 0 0 0 1-1c1-1 1-2 1-2c0 0 1 0 1-1c1-1 2-2 2-2c1-1 3-3 6-7c4-3 6-6 8-8c1-2 3-5 6-8c3-4 5-8 7-11c2-4 4-8 6-13c-24-14-42-31-56-51c-13-20-20-41-20-64c0-26 9-51 27-73c18-22 42-40 73-53c31-13 65-20 101-20z m235 334c2 5 4 9 6 13c2 4 4 7 7 11c3 3 5 6 6 8c2 2 4 5 8 8c3 4 5 6 6 8c1 0 1 0 2 1c0 1 1 1 1 1c0 1 1 1 1 2c0 0 1 1 1 1l1 2c0 0 0 0 0 1c1 2 1 2 0 2c0 0 0 1 0 2c0 3-2 5-4 6c-1 2-4 3-6 2c-9-1-18-2-24-4c-30-8-56-20-80-37c-17 3-34 5-50 5c-52 0-97-13-135-38c11 1 19 1 25 1c31 0 60-4 88-13c29-8 54-20 76-36c24-18 42-38 55-61c12-23 19-47 19-73c0-14-2-29-7-43c25 14 44 30 59 51c14 20 21 42 21 66c0 22-7 44-20 64c-14 20-32 36-56 50z"/>
    </symbol>

    <symbol id="sceico-apps" viewBox="0 0 512 512">
      <path d="m352 160l0-128l-320 0l0 320l128 0l0 128l320 0l0-320z m96 288l-256 0l0-256l256 0z"/>
    </symbol>

    <symbol id="sceico-check2empty" viewBox="0 0 512 512">
      <path d="m375 73l-238 0c-12 0-23 5-32 14c-9 9-14 19-14 32l0 238c0 12 5 23 14 32c9 9 20 13 32 13l238 0c12 0 23-4 32-13c9-9 14-20 14-32l0-238c0-13-5-23-14-32c-9-9-20-14-32-14z m82 46l0 238c0 22-8 42-24 58c-16 16-35 24-58 24l-238 0c-23 0-42-8-58-24c-16-16-24-36-24-58l0-238c0-23 8-42 24-58c16-16 35-24 58-24l238 0c23 0 42 8 58 24c16 16 24 35 24 58z"/>
    </symbol>

    <symbol id="sceico-starempty" viewBox="0 0 512 512">
      <path d="m343 287l88-85l-121-18l-54-109l-54 109l-121 18l88 85l-21 120l108-57l108 57z m151-102c0 4-3 9-8 14l-103 101l24 143c0 1 0 3 0 5c0 10-3 15-11 15c-4 0-8-2-12-4l-128-67l-128 67c-4 2-8 4-12 4c-4 0-7-2-9-5c-2-2-3-6-3-10c0-1 0-3 1-5l24-143l-104-101c-4-6-7-10-7-14c0-7 6-12 16-13l144-21l64-130c4-8 8-12 14-12c6 0 10 4 14 12l64 130l144 21c10 1 16 6 16 13z"/>
    </symbol>

    <symbol id="sceico-starhalf" viewBox="0 0 512 512">
      <path d="m357 273l74-71l-102-15l-19-3l-9-17l-45-92l0 275l17 9l91 48l-17-101l-4-19z m129-74l-103 101l24 143c1 6 1 11-2 14c-2 4-5 6-9 6c-4 0-7-2-12-4l-128-67l-128 67c-5 2-8 4-12 4c-4 0-7-2-9-6c-3-3-3-8-2-14l24-143l-104-101c-6-7-8-12-6-17c2-6 7-9 15-10l144-21l64-130c4-8 8-12 14-12c5 0 10 4 14 12l64 130l144 21c8 1 13 4 15 10c2 5 0 10-7 17z"/>
    </symbol>

    <symbol id="sceico-starfull" viewBox="0 0 512 512">
      <path d="m494 185c0 4-3 9-8 14l-103 101l24 143c0 1 0 3 0 5c0 4-1 8-3 10c-2 3-4 5-8 5c-4 0-8-2-12-4l-128-67l-128 67c-4 2-8 4-12 4c-4 0-7-2-9-5c-2-2-3-6-3-10c0-1 0-3 1-5l24-143l-104-101c-4-6-7-10-7-14c0-7 6-12 16-13l144-21l64-130c4-8 8-12 14-12c6 0 10 4 14 12l64 130l144 21c10 1 16 6 16 13z"/>
    </symbol>

    <symbol id="sceico-check2full" viewBox="0 0 512 512">
      <path d="m232 371l176-175c3-4 5-8 5-13c0-5-2-9-5-13l-29-29c-4-4-8-6-13-6c-5 0-10 2-13 6l-134 133l-60-60c-3-4-8-5-13-5c-5 0-9 1-13 5l-29 29c-3 4-5 8-5 13c0 5 2 9 5 13l103 102c3 4 7 6 12 6c5 0 10-2 13-6z m243-252l0 274c0 23-8 42-24 58c-16 16-35 24-58 24l-274 0c-23 0-42-8-58-24c-16-16-24-35-24-58l0-274c0-23 8-42 24-58c16-16 35-24 58-24l274 0c23 0 42 8 58 24c16 16 24 35 24 58z"/>
    </symbol>

    <symbol id="sceico-dlr" viewBox="0 0 512 512">
      <path d="m389 339c0 29-9 54-28 75c-19 21-44 34-74 39l0 50c0 3-1 5-3 6c-1 2-4 3-6 3l-39 0c-2 0-4-1-6-3c-2-2-3-4-3-6l0-50c-13-2-25-5-36-9c-12-4-22-8-29-13c-8-4-15-9-22-13c-6-5-10-9-13-11c-2-2-4-4-5-5c-3-4-3-8 0-12l29-39c1-1 4-3 7-3c2 0 5 0 6 3l1 0c22 19 45 31 69 36c7 1 15 2 22 2c15 0 29-4 40-12c12-8 18-20 18-35c0-5-2-10-4-15c-3-5-6-9-10-12c-4-3-9-7-17-11c-7-4-14-7-19-9c-5-2-12-5-22-9c-8-3-14-6-18-7c-4-2-10-5-18-8c-7-3-13-6-17-9c-5-2-10-6-17-10c-6-4-11-8-15-12c-4-4-8-9-12-14c-5-6-8-11-10-17c-3-5-5-12-6-19c-2-7-3-14-3-22c0-26 9-49 28-69c19-20 43-33 73-38l0-52c0-2 1-4 3-6c2-2 4-3 6-3l39 0c2 0 5 1 6 3c2 1 3 3 3 6l0 50c11 2 21 4 31 7c11 3 19 6 25 10c7 3 13 6 18 10c6 4 10 7 12 9c1 1 3 2 4 4c3 3 4 7 1 10l-23 42c-1 3-4 5-6 5c-3 0-6 0-8-2c-1-1-2-2-4-4c-2-1-6-4-11-7c-6-4-11-7-17-9c-6-3-13-6-21-8c-9-2-17-3-25-3c-18 0-33 4-44 12c-12 8-17 19-17 32c0 5 1 9 2 14c2 4 5 8 9 11c4 4 7 7 11 10c3 2 9 5 16 9c7 3 13 6 17 7c5 2 11 5 20 8c10 4 18 7 23 9c6 2 13 6 22 10c9 5 16 9 22 12c5 4 11 9 17 15c7 6 12 12 15 18c4 6 7 13 9 22c3 8 4 17 4 27z"/>
    </symbol>

    <symbol id="sceico-checksolo" viewBox="0 0 512 512">
      <path d="m448 72c-17-13-41-9-54 9l-180 263-99-107c-15-17-39-17-55-2-15 16-16 42-1 58 0 0 120 134 137 147 18 14 42 10 54-9l207-302c12-18 8-44-9-57z"/>
    </symbol>

    <symbol id="sceico-radiofull" viewBox="0 0 512 512">
      <path d="m256 48c-115 0-208 93-208 208 0 115 93 208 208 208 115 0 208-93 208-208 0-115-93-208-208-208z m0 399c-105 0-191-86-191-191 0-105 86-191 191-191 105 0 191 86 191 191 0 105-86 191-191 191z m0-351c-88 0-160 72-160 160 0 88 72 160 160 160 88 0 160-72 160-160 0-88-72-160-160-160z"/>
    </symbol>

    <symbol id="sceico-radioempty" viewBox="0 0 512 512">
      <path d="m256 48c-115 0-208 93-208 208 0 115 93 208 208 208 115 0 208-93 208-208 0-115-93-208-208-208z m0 399c-105 0-191-86-191-191 0-105 86-191 191-191 105 0 191 86 191 191 0 105-86 191-191 191z"/>
    </symbol>

    <symbol id="sceico-leftleft" viewBox="0 0 512 512">
      <path d="m289 393c0 3-1 5-3 7l-14 14c-2 2-4 3-7 3c-2 0-5-1-6-3l-134-133c-1-2-2-4-2-7c0-2 1-4 2-6l134-133c1-2 4-3 6-3c3 0 5 1 7 3l14 14c2 2 3 4 3 6c0 3-1 5-3 7l-112 112l112 113c2 1 3 4 3 6z m110 0c0 3-1 5-3 7l-15 14c-1 2-4 3-6 3c-3 0-5-1-7-3l-133-133c-2-2-3-4-3-7c0-2 1-4 3-6l133-133c2-2 4-3 7-3c2 0 5 1 6 3l15 14c2 2 3 4 3 6c0 3-1 5-3 7l-113 112l113 113c2 1 3 4 3 6z"/>
    </symbol>

    <symbol id="sceico-rightright" viewBox="0 0 512 512">
      <path d="m280 274c0 3-1 5-3 7l-133 133c-2 2-4 3-7 3c-2 0-5-1-6-3l-15-14c-2-2-3-4-3-7c0-2 1-5 3-6l113-113l-113-112c-2-2-3-4-3-7c0-2 1-4 3-6l15-14c1-2 4-3 6-3c3 0 5 1 7 3l133 133c2 2 3 4 3 6z m109 0c0 3-1 5-2 7l-134 133c-1 2-4 3-6 3c-3 0-5-1-7-3l-14-14c-2-2-3-4-3-7c0-2 1-5 3-6l112-113l-112-112c-2-2-3-4-3-7c0-2 1-4 3-6l14-14c2-2 4-3 7-3c2 0 5 1 6 3l134 133c1 2 2 4 2 6z"/>
    </symbol>

    <symbol id="sceico-circlearrow" viewBox="0 0 512 512">
      <path d="m0 256c0 141 115 256 256 256c141 0 256-115 256-256c0-141-115-256-256-256c-141 0-256 115-256 256z m472 0c0 119-97 216-216 216c-119 0-216-97-216-216c0-119 97-216 216-216c119 0 216 97 216 216z m-328-30l112 112l112-112l-32-32l-80 80l-80-80z"/>
    </symbol>

    <symbol id="sceico-refresh" viewBox="0 0 512 512">
      <path d="m320 448c0 35-29 64-64 64c-35 0-64-29-64-64c0-35 29-64 64-64c35 0 64 29 64 64z m60-5l0 0z m100-187c0-124-100-224-224-224c-124 0-224 100-224 224c0 49 16 95 44 132l-44 44l128 0l0-128l-38 38c-17-24-26-54-26-86c0-88 72-160 160-160c88 0 160 72 160 160c0 56-28 105-72 133l36 54c60-40 100-109 100-187z"/>
    </symbol>

    <symbol id="sceico-circleplus" viewBox="0 0 512 512">
      <path d="m272 128l-32 0l0 112l-112 0l0 32l112 0l0 112l32 0l0-112l112 0l0-32l-112 0z m-16-128c-141 0-256 115-256 256c0 141 115 256 256 256c141 0 256-115 256-256c0-141-115-256-256-256z m0 472c-119 0-216-97-216-216c0-119 97-216 216-216c119 0 216 97 216 216c0 119-97 216-216 216z"/>
    </symbol>

    <symbol id="sceico-circleminus" viewBox="0 0 512 512">
      <path d="m128 240l256 0l0 32l-256 0z m128-240c-141 0-256 115-256 256c0 141 115 256 256 256c141 0 256-115 256-256c0-141-115-256-256-256z m0 472c-119 0-216-97-216-216c0-119 97-216 216-216c119 0 216 97 216 216c0 119-97 216-216 216z"/>
    </symbol>

    <symbol id="sceico-threedots" viewBox="0 0 512 512">
      <path d="m77 200c16 0 29 5 40 16c11 11 16 24 16 40c0 15-5 28-16 39c-11 12-24 17-40 17c-16 0-29-5-40-17c-11-11-17-24-17-39c0-16 6-29 17-40c11-11 24-16 40-16m179 0c16 0 29 5 40 16c11 11 16 24 16 40c0 15-5 28-17 39c-11 12-24 17-39 17c-15 0-28-5-39-17c-12-11-17-24-17-39c0-16 5-29 16-40c11-11 24-16 40-16m179 0c16 0 29 5 40 16c11 11 17 24 17 40c0 15-6 28-17 39c-11 12-24 17-40 17c-15 0-29-5-40-17c-11-11-16-24-16-39c0-16 5-29 16-40c11-11 25-16 40-16"/>
    </symbol>

    <symbol id="sceico-downsolo" viewBox="0 0 512 512">
      <path d="m67 143c0 0 189 183 189 183c0 0 190-183 190-183c8-9 16-9 25 0c9 8 9 16 0 25c0 0-203 201-203 201c-7 7-15 7-24 0c0 0-203-201-203-201c-9-9-9-17 0-25c8-8 17-8 26 0"/>
    </symbol>

    <symbol id="sceico-userline" viewBox="0 0 512 512">
      <path d="m505 426c-36-85-105-125-158-143c24-33 37-81 37-140c1-99-81-126-124-127c-44 0-126 25-127 125c0 59 12 107 35 140c-54 18-123 56-161 141l-9 20l21 8c4 2 109 45 237 46c127 1 233-40 237-41l21-8z m-246-367c9 0 83 4 83 84c-1 64-18 112-48 133l-37 26l-36-27c-29-21-46-70-45-134c0-80 75-82 83-82z m-3 394c-86-1-163-22-199-34c39-69 105-95 156-106l44-9l45 10c50 11 116 39 154 108c-36 12-113 32-200 31z"/>
    </symbol>

    <symbol id="sceico-searchthin" viewBox="0 0 512 512">
      <path d="m512 500l-160-160c33-36 54-84 54-137 0-112-91-203-203-203-112 0-203 91-203 203 0 112 91 203 203 203 51 0 100-19 137-54l160 160z m-495-297c0-103 83-186 186-186 103 0 186 83 186 186 0 103-83 186-186 186-103 0-186-83-186-186z"/>
    </symbol>

    <symbol id="sceico-earth" viewBox="0 0 512 512">
      <path d="m357 126c-2-4-9-12-14-14-6-1-2 5-2 7-2 1-4 2-5 4-1 1 2 6 6 4 5-2 2 2 5 9 4 7 10 7 13 5 3-3-1-12-3-15z m19 45c0 0 0 0 0 0 0 0 0 0 0 0z m59 26c0 0-2 0 0 0z m-179-165c-124 0-224 100-224 224 0 124 100 224 224 224 124 0 224-100 224-224 0-124-100-224-224-224z m-83 397c-5-3-9-7-11-16-4-20 0-32 18-44 9-5 10-12 17-19 2-2 7-11 10-11 3-1 13-3 15-7 4-5 12-27 16-29 6-4 14-16 8-23-7-9-16-9-26-14-8-4-11-22-17-28-12-12-30-19-45-27-8-3-8-4-14 2-8 8-20-2-21-10 0-3-4-19-2-20 18-11-8-8-10-14-6-14 13-26 25-28 14-1 17 22 22 20 3-1 3-12 3-15 1-8 4-9 12-12 9-3 16-7 25-9 11-3 21-1 29-9 4-2 7 2 11 3 8 1 9-11 9-16 0-5 1-9-4-14-8-6-20 0-26 6-7 7-16 6-14-6 1-4 11-9 14-12 4-2 6 3 11 2 6-2 9 4 17 4 3 0 14-6 8-19 1 0 2 0 3 0 2 0 4 0 6 0 2 9-6 17-2 28 9 21 16 3 25-7 3-3 4-3 9-3 3-1 7-10 8-12 20 5 40 13 57 24-7 1-9-2-9 7 0 4 0 14 5 14 8 1 7 7 15 8 7 1 2 8 5 14 4 11-19 14-24 15-14 5 6 25 15 22 3 0 13-2 13-5 0 0-2-11-1-12 2-2 5-3 11 0 13 8 20 26 36 30 2 0 6 0 8 2 3 3 8 8 2 8-9-2-14 1-22-5-7-6-12-11-22-11-9 0-17-4-26-2-5 1-10 3-15 4-5 2-6 10-10 11-20 4-15 23-19 38-1 5-6 21-1 26 9 9 20 21 33 23 7 1 23-5 28 3 2 4 8-4 9 0 4 11-4 18-4 29 0 15 9 20-4 34-13 13-4 31-11 47-5 8-5 20-11 24-14 8-28 15-43 20-27 9-55 12-83 8-15-1-29-5-43-10-4-1-7-2-10-3-3-1-5-2-8-4z m-41-27c-1 0-1 0-2-1-3-3-7-6-10-9-3-4-6-7-9-11-1 0-1 0-1 0 0-1-1-1-1-2-52-63-60-154-16-224 6 6-4 18 7 26 5 4 10 2 9 9-1 6 5 6 6 12 3 12 20 19 10 33-9 12-17 26-10 42 2 6 8 12 12 17 8 8 8 3 8 13 0 4 5 9 5 12-2 8-3 15-4 23-2 29-1 57 21 79-8-5-16-11-23-17-1 0-2-1-2-2z"/>
    </symbol>

    <symbol id="sceico-tup" viewBox="0 0 512 512">
      <path d="m349 189c1 2 11 5 30 7c19 2 37 7 55 12c18 6 27 14 27 24c0 25-11 73-31 146c-21 72-40 108-55 108c-49 0-99-7-148-21c-49-14-73-29-73-45c0 0 0-175 0-175c0-5 2-11 7-18c5-6 13-14 24-23c10-8 19-15 27-21c7-5 18-13 32-22c13-9 21-14 23-16c17-11 35-28 54-51c18-22 32-40 43-53c11-13 18-17 21-13c16 26 21 49 15 70c-7 21-17 41-30 61c-14 20-21 30-21 30m-221 2c5 0 5 3 0 8c-17 17-26 34-26 53c0 0 0 163 0 163c0 17 9 35 27 53c3 3 3 5-1 5c-9 0-18-1-28-4c-10-3-21-10-32-23c-11-13-17-30-17-51c0 0 0-124 0-124c0-21 6-38 17-51c11-13 22-21 32-24c11-3 20-5 28-5"/>
    </symbol>

    <symbol id="sceico-tdown" viewBox="0 0 512 512">
      <path d="m163 324c-1-2-11-5-29-7c-19-2-38-7-56-12c-18-6-27-14-27-24c0-25 11-74 32-146c21-73 39-109 54-109c49 0 99 7 148 22c49 14 73 29 73 45c0 0 0 175 0 175c0 4-1 8-4 13c-2 4-7 9-12 15c-6 5-12 10-17 15c-5 4-12 10-21 16c-10 7-17 12-21 15c-5 3-12 8-21 14c0 0-17 12-17 12c-17 11-35 28-54 51c-18 22-32 40-43 53c-11 13-18 17-21 13c-16-26-21-49-15-70c7-21 17-41 30-61c14-19 21-30 21-30m221-2c-4 0-4-3 1-8c16-17 25-34 25-53c0 0 0-163 0-163c0-17-9-35-27-53c-3-3-3-5 1-5c9 0 18 1 28 4c10 3 21 10 32 23c11 13 17 30 17 51c0 0 0 124 0 124c0 16-3 30-9 41c-7 11-14 20-23 25c-10 5-18 8-25 10c-7 3-14 4-20 4"/>
    </symbol>

    <symbol id="sceico-pin" viewBox="0 0 512 512">
      <path d="m426 198c0-23-5-45-14-66c-8-20-20-38-36-54c-16-15-34-28-54-36c-21-9-43-14-66-14c-23 0-45 5-66 14c-20 8-38 21-54 36c-16 16-28 34-36 54c-9 21-14 43-14 66c0 23 5 45 14 66c4 12 10 22 17 32l112 171c15 22 39 22 54 0l112-171c7-10 13-20 17-32c9-21 14-43 14-66z m-125 45c-12 12-28 19-45 19c-17 0-33-7-45-19c-12-12-18-28-18-45c0-17 6-32 18-44c12-12 28-19 45-19c17 0 33 7 45 19c12 12 18 27 18 44c0 17-6 33-18 45z"/>
    </symbol>

    <symbol id="sceico-print" viewBox="0 0 512 512">
      <path d="m463 180c0-5-4-9-9-9l-67 0l0-110c0-5-5-10-10-10l-242 0c-5 0-10 5-10 10l0 110l-67 0c0 0 0 0 0 0c-5 0-9 4-9 9l0 0l0 188c0 5 4 10 9 10l67 0l0-79l262 0l0 79l67 0c5 0 9-5 9-10l0-188z m-102 33l-210 0l0-127c0-5 4-9 9-9l192 0c5 0 9 4 9 9l0 127z m-209 238c0 5 4 10 9 10l190 0c5 0 9-5 9-10l0-126l-208 0z"/>
    </symbol>

    <symbol id="sceico-attach" viewBox="0 0 512 512">
      <path d="m141 507c-35 0-64-12-87-37c-25-24-38-52-38-85c-1-33 13-65 43-97c0 0 254-254 254-254c27-28 57-37 89-28c15 4 28 12 40 24c12 12 20 26 24 41c9 32 0 62-27 90c0 0-243 242-243 242c-14 14-29 22-45 24c-17 1-30-3-41-14c-10-9-15-21-14-38c1-17 9-33 24-47c0 0 170-171 170-171c8-9 17-9 26 0c9 9 9 17 0 25c0 0-170 170-170 170c-15 15-19 27-11 36c5 3 9 4 13 3c8-1 16-6 23-13c0 0 243-243 243-243c17-17 23-35 17-55c-5-21-18-34-39-39c-18-5-36 1-55 18c0 0-253 253-253 253c-22 26-33 51-33 74c1 22 10 42 27 59c17 17 37 25 60 26c23 1 47-10 72-32c0 0 254-253 254-253c8-8 17-8 26 0c9 8 9 16 0 25c0 0-254 254-254 254c-28 28-60 42-95 42"/>
    </symbol>

    <symbol id="sceico-cc" viewBox="0 0 512 512">
      <path d="m469 51c12 0 22 4 30 13c9 8 13 18 13 30l0 324c0 12-4 22-13 30c-8 9-18 13-30 13l-426 0c-12 0-22-4-30-13c-9-8-13-18-13-30l0-324c0-12 4-22 13-30c8-9 18-13 30-13z m-426 34c-3 0-5 1-6 3c-2 2-3 4-3 6l0 60l444 0l0-60c0-2-1-4-3-6c-1-2-3-3-6-3z m426 342c3 0 5-1 6-3c2-2 3-4 3-6l0-162l-444 0l0 162c0 2 1 4 3 6c1 2 3 3 6 3z m-401-34l0-35l69 0l0 35z m103 0l0-35l102 0l0 35z"/>
    </symbol>

    <symbol id="sceico-play" viewBox="0 0 512 512">
      <path d="m256 0c-141 0-256 115-256 256c0 141 115 256 256 256c141 0 256-115 256-256c0-141-115-256-256-256z m0 472c-119 0-216-97-216-216c0-119 97-216 216-216c119 0 216 97 216 216c0 119-97 216-216 216z m-64-136l160-80l-160-80z"/>
    </symbol>

    <symbol id="sceico-forbid" viewBox="0 0 512 512">
      <path d="m256 512c-141 0-256-115-256-256c0-141 115-256 256-256c141 0 256 115 256 256c0 141-115 256-256 256z m-192-256c0 41 13 79 36 111l267-267c-32-23-70-36-111-36c-106 0-192 86-192 192z m348-111l-267 268c32 22 70 35 111 35c106 0 192-86 192-192c0-41-13-79-36-111z"/>
    </symbol>

    <symbol id="sceico-share" viewBox="0 0 512 512">
      <path d="m384 333c21 0 39 7 54 22c15 14 23 33 23 55c0 21-8 39-23 54c-15 15-33 22-54 22c-21 0-39-7-54-22c-15-15-23-33-23-54c0-2 0-5 1-8c0-2 0-4 0-6c0 0-133-80-133-80c-14 11-30 17-47 17c-21 0-39-8-54-23c-15-15-23-33-23-54c0-21 8-39 23-54c15-15 33-23 54-23c18 0 34 5 47 16c0 0 133-80 133-80c0-2 0-4 0-6c-1-3-1-5-1-7c0-21 8-39 23-54c15-15 33-22 54-22c21 0 39 7 54 22c15 14 23 33 23 54c0 22-8 40-23 55c-15 15-33 22-54 22c-18 0-33-5-46-16c0 0-134 80-134 80c0 2 1 7 1 13c0 5-1 10-1 12c0 0 134 80 134 80c12-10 28-15 46-15"/>
    </symbol>

    <symbol id="sceico-cloud" viewBox="0 0 512 512">
      <path d="m408 448c61 0 101-67 101-136c0-59-48-111-107-119l-10-26c-23-63-81-103-147-103c-87 0-158 72-158 160c0 4 0 8 0 11c-47 6-84 46-84 96c0 45 35 110 85 117z m-110-175c19-28 57-30 74-39l0 1l15 0c42 0 80 32 80 72c0 39-26 98-68 98l-309 0c-23 0-45-50-45-79c0-33 29-57 64-50l33 8l-8-32c-2-9-5-18-5-28c0-65 52-117 116-117c49 0 90 28 107 75c-43 25-56 86-56 86"/>
    </symbol>

    <symbol id="sceico-pie" viewBox="0 0 512 512">
      <path d="m219 254l156 156c-20 21-43 37-70 48-27 12-56 17-86 17-39 0-76-9-110-29-33-20-60-46-80-80-19-33-29-70-29-110 0-40 10-77 29-110 20-34 47-60 80-80 34-20 71-29 110-29z m54 2l221 0c0 30-6 58-17 85-12 27-28 51-48 71z m202-37l-219 0 0-219c40 0 77 10 110 29 34 20 60 47 80 80 20 34 29 71 29 110z"/>
    </symbol>

    <symbol id="sceico-tag" viewBox="0 0 512 512">
      <path d="m165 128c0-10-4-19-11-26-7-7-16-11-26-11-10 0-19 4-26 11-7 7-11 16-11 26 0 10 4 19 11 26 7 7 16 11 26 11 10 0 19-4 26-11 7-7 11-16 11-26z m304 165c0 10-3 18-10 25l-140 141c-8 7-17 10-26 10-11 0-19-3-26-10l-204-205c-8-7-14-16-19-29-5-12-7-23-7-33l0-119c0-10 3-18 10-26 8-7 16-10 26-10l119 0c10 0 21 2 33 7 13 5 22 11 30 19l204 204c7 7 10 16 10 26z"/>
    </symbol>

    <symbol id="sceico-chartlines" viewBox="0 0 512 512">
      <path d="m17 290c-14-4-20-13-16-29c3-14 12-20 27-16c0 0 50 12 50 12c0 0-26 41-26 41c0 0-35-8-35-8m455 6c4-4 10-6 16-6c7 1 12 3 16 8c11 11 11 22-1 33c0 0-128 115-128 115c-5 4-10 6-16 6c-5 0-9-2-14-5c0 0-146-112-146-112c0 0-28-8-28-8c0 0 26-40 26-40c0 0 18 4 18 4c4 1 7 2 8 4c0 0 135 104 135 104c0 0 114-103 114-103m-251-112c0 0-178 280-178 280c-4 8-11 12-20 12c-4 0-8-2-12-5c-5-3-9-8-10-14c-1-7 0-12 3-17c0 0 191-300 191-300c3-6 7-9 14-11c6-2 12-1 19 3c0 0 125 80 125 80c0 0 115-166 115-166c4-6 9-9 15-10c6-1 12 1 17 5c13 8 15 18 6 31c0 0-128 185-128 185c-9 12-19 14-32 6c0 0-125-79-125-79"/>
    </symbol>

    <symbol id="sceico-circlecheck" viewBox="0 0 512 512">
      <path d="m211 307l-51-51l-32 32l83 80l173-192l-32-32z m45-307c-141 0-256 115-256 256c0 141 115 256 256 256c141 0 256-115 256-256c0-141-115-256-256-256z m0 472c-119 0-216-97-216-216c0-119 97-216 216-216c119 0 216 97 216 216c0 119-97 216-216 216z"/>
    </symbol>

    <symbol id="sceico-ios-search-strong-1" viewBox="0 0 512 512">
      <path d="m475 384l0 37c0 5-1 9-5 12-4 4-8 6-13 6l-402 0c-5 0-9-2-13-6-4-3-5-7-5-12l0-37c0-5 1-9 5-13 4-3 8-5 13-5l402 0c5 0 9 2 13 5 4 4 5 8 5 13z m0-146l0 36c0 5-1 10-5 13-4 4-8 6-13 6l-402 0c-5 0-9-2-13-6-4-3-5-8-5-13l0-36c0-5 1-10 5-13 4-4 8-6 13-6l402 0c5 0 9 2 13 6 4 3 5 8 5 13z m0-147l0 37c0 5-1 9-5 13-4 3-8 5-13 5l-402 0c-5 0-9-2-13-5-4-4-5-8-5-13l0-37c0-5 1-9 5-12 4-4 8-6 13-6l402 0c5 0 9 2 13 6 4 3 5 7 5 12z"/>
    </symbol>

    <symbol id="sceico-searchmedium" viewBox="0 0 512 512">
      <path d="m345 298c15-24 23-52 23-82 0-84-68-152-152-152-84 0-152 68-152 152 0 84 68 153 152 153 31 0 59-9 83-25l7-5 108 109 34-34-108-109z m-44-167c23 23 36 53 36 85 0 32-13 63-36 85-22 23-52 35-85 35-32 0-62-12-85-35-22-22-35-53-35-85 0-32 13-62 35-85 23-22 53-35 85-35 33 0 63 13 85 35z"/>
    </symbol>

    <symbol id="sceico-check-full" viewBox="0 0 512 512">
      <path d="m256 28c-126 0-228 102-228 228c0 126 102 228 228 228c126 0 228-102 228-228c0-126-102-228-228-228z m129 183l-153 153c-5 5-11 7-18 7c-7 0-13-2-18-7l-74-75c-10-10-10-26 0-36c10-10 26-10 36 0l56 56l135-135c10-10 26-10 36 0c10 10 10 27 0 37z"/>
    </symbol>

    <symbol id="sceico-warning" viewBox="0 0 512 512">
      <path d="m256 28c-126 0-228 102-228 228c0 126 102 228 228 228c126 0 228-102 228-228c0-126-102-228-228-228z m27 357c-7 7-16 11-25 11c-10 0-19-4-25-11c-7-6-11-15-11-25c0-9 4-18 11-25c13-13 37-13 50 0c7 7 10 16 10 25c1 10-3 19-10 25z m16-224l-13 118c-1 16-15 27-31 26c-14-2-24-12-25-26l-13-118c-2-23 14-43 37-46c23-2 43 15 45 38c1 2 1 5 0 8z"/>
    </symbol>

    <symbol id="sceico-apps-invert" viewBox="0 0 512 512">
      <path d="m160 352l160 0l0-128l96 0l0 256l-256 0z m-160-320l0 320l128 0l0 160l320 0l0-320l-128 0l0-160z"/>
    </symbol>

    <symbol id="sceico-circle" viewBox="0 0 512 512">
      <path d="m475 256c0 40-9 77-29 110-20 34-46 60-80 80-33 20-70 29-110 29-40 0-77-9-110-29-34-20-60-46-80-80-20-33-29-70-29-110 0-40 9-77 29-110 20-34 46-60 80-80 33-20 70-29 110-29 40 0 77 9 110 29 34 20 60 46 80 80 20 33 29 70 29 110z"/>
    </symbol>

    <symbol id="sceico-spin-alt" viewBox="0 0 512 512">
      <path d="m75 437c-48-48-75-113-75-181c0-141 115-256 256-256l32 32l-32 32c-106 0-192 86-192 192c0 51 20 100 56 136l-39 5z m181 75l-32-32l32-32c106 0 192-86 192-192c0-51-20-100-56-136l39-5l6-40c48 48 75 113 75 181c0 141-115 256-256 256z"/>
    </symbol>

    <symbol id="sceico-spin" viewBox="0 0 512 512">
      <path d="m414 97l-45 46c30 30 47 70 47 113c0 88-72 160-160 160l0-32l-64 64l64 64l0-32c124 0 224-100 224-224c0-60-23-116-66-159z m-94-33l-64-64l0 32c-124 0-224 100-224 224c0 60 23 116 66 159l45-46c-30-30-47-70-47-113c0-88 72-160 160-160l0 32z"/>
    </symbol>

    <symbol id="sceico-android-open" viewBox="0 0 512 512">
      <path d="m405 405l-298 0 0-298 133 0 0-43-133 0c-24 0-43 19-43 43l0 298c0 24 19 43 43 43l298 0c24 0 43-19 43-43l0-133-43 0z m-117-341l0 43 87 0-215 215 30 30 215-215 0 87 43 0 0-160z"/>
    </symbol>

    <symbol id="sceico-braille" viewBox="0 0 512 512">
      <path d="m195 123c0 20-16 36-36 36c-19 0-35-16-35-36c0-20 16-36 35-36c20 0 36 16 36 36z m193 0c0 20-16 36-35 36c-20 0-36-16-36-36c0-20 16-36 36-36c19 0 35 16 35 36z m-193 133c0 20-16 36-36 36c-19 0-35-16-35-36c0-20 16-36 35-36c20 0 36 16 36 36z m193 0c0 20-16 36-35 36c-20 0-36-16-36-36c0-20 16-36 36-36c19 0 35 16 35 36z m-193 133c0 20-16 36-36 36c-19 0-35-16-35-36c0-20 16-36 35-36c20 0 36 16 36 36z m193 0c0 20-16 36-35 36c-20 0-36-16-36-36c0-20 16-36 36-36c19 0 35 16 35 36z"/>
    </symbol>

    <symbol id="sceico-bag" viewBox="0 0 512 512">
      <path d="m448 160l-64 0 0-4c0-69-55-124-123-124l-8 0c-69 0-125 55-125 124l0 4-64 0-32 320 448 0z m-288-4c0-51 42-92 93-92l8 0c50 0 91 41 91 92l0 4-192 0z m-92 292l25-256 35 0 0 36c-10 6-16 16-16 28 0 18 14 32 32 32 18 0 32-14 32-32 0-12-6-22-16-28l0-36 192 0 0 36c-10 6-16 16-16 28 0 18 14 32 32 32 18 0 32-14 32-32 0-12-6-22-16-28l0-36 35 0 25 256z"/>
    </symbol>

    <symbol id="sceico-ship" viewBox="0 0 512 512">
      <path d="m128 352c-35 0-64 29-64 64c0 35 29 64 64 64c35 0 64-29 64-64c0-35-29-64-64-64m288 0c-35 0-64 29-64 64c0 35 29 64 64 64c35 0 64-29 64-64c0-35-29-64-64-64m80-320l-320 0c-9 0-16 7-16 16l0 48l-80 0c-9 0-19 6-23 14l-50 100c-4 8-7 21-7 30l0 96c0 9 5 21 11 27l10 10c4 4 11 7 17 9c14-36 49-62 90-62c42 0 77 27 90 64l108 0c13-37 48-64 90-64c40 0 75 25 89 61c4-3 7-8 7-13l0-320c0-9-7-16-16-16m-336 192l-96 0l32-96l64 0z"/>
    </symbol>

    <symbol id="sceico-ship2" viewBox="0 0 512 512">
      <path d="m397 183c-3-4-8-7-13-7l-16 0c-9 0-16 7-16 16l0 96c0 9 7 16 16 16l64 0c9 0 16-7 16-16l0-24c0-3-1-6-3-9z m35 105l-64 0l0-96l16 0l48 72z m72-43l-64-96c-9-13-24-21-40-21l-64 0l0-32c0-26-22-48-48-48l-240 0c-26 0-48 22-48 48l0 176c0 26 22 48 48 48l0 48c0 26 22 48 48 48l18 0c7 28 32 48 62 48c30 0 55-20 62-48l84 0c7 28 32 48 62 48c30 0 55-20 62-48l18 0c26 0 48-22 48-48l0-96c0-10-3-19-8-27z m-456 43c-9 0-16-7-16-16l0-176c0-9 7-16 16-16l240 0c9 0 16 7 16 16l0 176c0 9-7 16-16 16z m128 144c-18 0-32-14-32-32c0-18 14-32 32-32c18 0 32 14 32 32c0 18-14 32-32 32z m208 0c-18 0-32-14-32-32c0-18 14-32 32-32c18 0 32 14 32 32c0 18-14 32-32 32z m96-64c0 9-7 16-16 16l-18 0c-7-28-32-48-62-48c-30 0-55 20-62 48l-84 0c-7-28-32-48-62-48c-30 0-55 20-62 48l-18 0c-9 0-16-7-16-16l0-48l208 0c26 0 48-22 48-48l0-112l64 0c5 0 10 3 13 7l64 96c2 3 3 6 3 9z"/>
    </symbol>

    <symbol id="sceico-box" viewBox="0 0 512 512">
      <path d="m240 32l-240 64 0 288 240 64 240-64 0-288z m-208 328l0-216 192 51 0 217z m0-248l80-21 208 55 0 0-80 22z m416 248l-192 52 0-217 64-17 0 78 64-17 0-78 64-17z m-64-231l0 0-208-55 64-18 208 56z"/>
    </symbol>

    <symbol id="sceico-lock" viewBox="0 0 512 512">
      <path d="m183 219l146 0 0-54c0-21-7-38-21-52-15-14-32-22-52-22-20 0-37 8-52 22-14 14-21 31-21 52z m238 28l0 164c0 8-3 15-8 20-6 5-12 8-20 8l-274 0c-8 0-14-3-20-8-5-5-8-12-8-20l0-164c0-8 3-14 8-20 6-5 12-8 20-8l9 0 0-54c0-35 13-66 38-91 25-25 55-37 90-37 35 0 65 12 90 37 25 25 38 56 38 91l0 54 9 0c8 0 14 3 20 8 5 6 8 12 8 20z"/>
    </symbol>

    <symbol id="sceico-attention" viewBox="0 0 512 512">
      <path d="m499 447c4 6 4 12 0 18c-3 5-8 8-15 8c0 0-457 0-457 0c-6 0-11-3-14-8c-4-6-4-12-1-18c0 0 228-400 228-400c3-6 8-9 16-9c7 0 12 3 15 9c0 0 228 400 228 400m-215-25c0 0 0-51 0-51c0 0-56 0-56 0c0 0 0 51 0 51c0 0 56 0 56 0m0-89c0 0 0-154 0-154c0 0-56 0-56 0c0 0 0 154 0 154c0 0 56 0 56 0"/>
    </symbol>

    <symbol id="sceico-search-thin" viewBox="0 0 512 512">
      <path d="m507 485l-128-128c0 0 0 0 0-1 32-37 52-87 52-140 0-119-96-216-215-216-119 0-216 97-216 216 0 119 97 215 216 215 53 0 103-20 140-52 1 0 1 0 1 0l128 128c3 3 7 5 11 5 4 0 8-2 11-5 7-6 7-16 0-22z m-291-86c-102 0-184-82-184-183 0-102 82-184 184-184 101 0 183 82 183 184 0 101-82 183-183 183z"/>
    </symbol>

    <symbol id="sceico-user-thin" viewBox="0 0 512 512">
      <path d="m256 32c62 0 112 50 112 112 0 62-50 112-112 112-62 0-112-50-112-112 0-62 50-112 112-112m0-32c-80 0-144 64-144 144 0 80 64 144 144 144 80 0 144-64 144-144 0-80-64-144-144-144z m112 368c62 0 112 50 112 112l-448 0c0-62 50-112 112-112l224 0m0-32l-224 0c-80 0-144 64-144 144l0 32 512 0 0-32c0-80-64-144-144-144z"/>
    </symbol>

    <symbol id="sceico-ios-browsers" viewBox="0 0 512 512">
      <path d="m64 144l0 304 304 0 0-304z m80-80l0 64 240 0 0 240 64 0 0-304z"/>
    </symbol>

    <symbol id="sceico-sort-amount" viewBox="0 0 512 512">
      <path d="m347 448l0 55c0 3 0 5-2 6c-2 2-4 3-7 3l-73 0c-3 0-5-1-6-3c-2-1-3-3-3-6l0-55c0-3 1-5 3-7c1-1 3-2 6-2l73 0c3 0 5 1 7 2c2 2 2 4 2 7z m-137-37c0 3-1 5-3 7l-91 91c-2 2-4 3-6 3c-3 0-5-1-7-3l-91-91c-3-3-4-6-2-10c1-4 4-6 8-6l55 0l0-393c0-3 1-5 3-6c1-2 4-3 6-3l55 0c3 0 5 1 7 3c1 1 2 3 2 6l0 393l55 0c3 0 5 1 7 3c1 2 2 4 2 6z m192-109l0 55c0 2-1 4-2 6c-2 2-4 3-7 3l-128 0c-3 0-5-1-6-3c-2-2-3-4-3-6l0-55c0-3 1-5 3-7c1-2 3-2 6-2l128 0c3 0 5 0 7 2c1 2 2 4 2 7z m55-147l0 55c0 3-1 5-2 7c-2 2-4 2-7 2l-183 0c-3 0-5 0-6-2c-2-2-3-4-3-7l0-55c0-2 1-4 3-6c1-2 3-3 6-3l183 0c3 0 5 1 7 3c1 2 2 4 2 6z m55-146l0 55c0 3-1 5-3 7c-1 1-3 2-6 2l-238 0c-3 0-5-1-6-2c-2-2-3-4-3-7l0-55c0-3 1-5 3-6c1-2 3-3 6-3l238 0c3 0 5 1 6 3c2 1 3 3 3 6z"/>
    </symbol>

    <symbol id="sceico-filter" viewBox="0 0 512 512">
      <path d="m456 84c3 8 2 15-4 20l-141 141 0 212c0 8-4 14-11 17-3 1-5 1-7 1-6 0-10-1-13-5l-73-73c-4-4-6-8-6-13l0-139-141-141c-6-5-7-12-4-20 4-7 9-11 17-11l366 0c8 0 13 4 17 11z"/>
    </symbol>

    <symbol id="sceico-fast-cart" viewBox="0 0 512 512">
      <path d="m166 227l29 106c4 17 21 30 39 30l228 0c18 0 34-14 36-33l14-139c1-9-2-18-8-25-7-7-15-11-25-11l-293 0c-3 0-6 1-9 2l-24-87c-5-17-22-30-40-30l-91 0c-8 0-14 7-14 15 0 8 6 15 14 15l91 0c4 0 10 4 11 8z m19-42c0 0 0 0 0 0 1 0 1 0 1 0l293 0c1 0 2 0 3 1 0 1 1 1 0 3l-13 138c-1 3-4 7-7 7l-228 0c-4 0-9-5-11-8z m188 241c0 25 20 46 45 46 26 0 46-21 46-46 0-25-20-46-46-46-25 0-45 21-45 46z m29 0c0-9 7-16 16-16 10 0 17 7 17 16 0 9-7 16-17 16-9 0-16-7-16-16z m-175 0c0 25 20 46 45 46 26 0 46-21 46-46 0-25-20-46-46-46-25 0-45 21-45 46z m29 0c0-9 7-16 16-16 10 0 17 7 17 16 0 9-7 16-17 16-8 0-16-7-16-16z m-256-256c0 6 4 10 10 10l107 0c5 0 9-4 9-10 0-5-4-10-9-10l-107 0c-6 0-10 5-10 10z m30 46c0 6 4 10 9 10l95 0c6 0 10-4 10-10 0-5-4-10-10-10l-95 0c-5 0-9 5-9 10z m25 46c0 6 5 10 10 10l81 0c6 0 10-4 10-10 0-6-4-10-10-10l-81 0c-5 0-10 5-10 10z"/>
    </symbol>

</svg>
